<svg role="img" class="mx-auto text-violet-500" style="pointer-events: none; width: 48; height: 48; " viewBox="0 0 20 20" fill="currentColor">
  <g bufferred-rendering="static">


      <path d="M5.34 7.595L1.331 9.436a.564.564 0 000 1.023l4.009 1.842 1.841 4.008a.564.564 0 001.023 0l1.842-4.008 4.009-1.842a.564.564 0 000-1.023l-4.009-1.841-1.842-4.009a.562.562 0 00-1.023 0L5.34 7.595z" fill-opacity="1"></path>
      <path d="M14.476 3.168l-2.004.921a.28.28 0 000 .511l2.004.921.921 2.004a.282.282 0 00.511 0l.921-2.004 2.004-.921a.282.282 0 000-.511l-2.004-.921-.921-2.004a.28.28 0 00-.511 0l-.921 2.004zM14.476 14.479l-2.004.921a.282.282 0 000 .511l2.004.921.921 2.004a.282.282 0 00.511 0l.921-2.004 2.004-.921a.28.28 0 000-.511l-2.004-.921-.921-2.004a.28.28 0 00-.511 0l-.921 2.004z" fill-opacity=".45"></path>

  </g>
</svg>